<!DOCTYPE svg PUBLIC "-//W3C//DTD SVG 1.1//EN" "http://www.w3.org/Graphics/SVG/1.1/DTD/svg11.dtd">
<!-- Uploaded to: SVG Repo, www.svgrepo.com, Transformed by: SVG Repo Mixer Tools -->
<svg width="800px" height="800px" viewBox="0 0 48 48" xmlns="http://www.w3.org/2000/svg" fill="#2C666E" stroke="#2C666E">
<g id="SVGRepo_bgCarrier" stroke-width="0"/>
<g id="SVGRepo_tracerCarrier" stroke-linecap="round" stroke-linejoin="round"/>
<g id="SVGRepo_iconCarrier">
<defs>
<style>.a{fill:none;stroke:#2C666E;stroke-linecap:round;stroke-linejoin:round;}</style>
</defs>
<path class="a" d="M37.67,6.09,42.5,11,21.59,31.89,11,21.31l4.82-4.82,5.75,5.74ZM28.48,25H38.82A1.24,1.24,0,0,1,40,26.14v4.6a1.24,1.24,0,0,1-1.15,1.15H6.65A1.15,1.15,0,0,1,5.5,30.74v-4.6A1.24,1.24,0,0,1,6.65,25h8m-8,10H38.82A1.23,1.23,0,0,1,40,36.17v4.59a1.23,1.23,0,0,1-1.15,1.15H6.65A1.15,1.15,0,0,1,5.5,40.76V36.17A1.23,1.23,0,0,1,6.65,35Z"/>
</g>
</svg>